<?xml version="1.0" standalone="no"?>
<!DOCTYPE svg PUBLIC "-//W3C//DTD SVG 20010904//EN"
 "http://www.w3.org/TR/2001/REC-SVG-20010904/DTD/svg10.dtd">
<svg version="1.0" xmlns="http://www.w3.org/2000/svg"
 width="500.000000pt" height="500.000000pt" viewBox="0 0 500.000000 500.000000"
 preserveAspectRatio="xMidYMid meet">
<g transform="translate(0.000000,500.000000) scale(0.100000,-0.100000)"
fill="#000000" stroke="none">
<path d="M2475 4140 c-27 -6 -135 -53 -320 -140 -33 -15 -82 -38 -110 -50 -27
-13 -81 -37 -120 -55 -38 -18 -176 -81 -305 -140 -129 -59 -241 -113 -249
-120 -7 -7 -10 -18 -7 -24 7 -10 128 -71 348 -173 l86 -40 114 54 c62 30 133
60 158 68 25 7 56 16 70 20 98 32 213 44 410 44 202 0 264 -7 405 -45 75 -21
216 -88 251 -120 11 -10 23 -19 27 -19 4 0 59 25 122 55 62 30 116 55 119 55
4 0 6 -97 6 -215 l0 -214 -25 -25 c-54 -54 -17 -146 60 -146 77 0 114 92 59
147 l-25 25 -2 234 -2 233 58 26 c39 19 57 33 57 46 0 20 -6 23 -300 156 -91
41 -194 89 -230 105 -36 17 -92 43 -125 58 -167 78 -217 100 -220 100 -3 0
-40 18 -85 39 -117 58 -175 73 -225 61z m67 -24 c-3 -5 2 -7 11 -3 10 3 17 2
17 -4 0 -6 4 -8 9 -4 5 3 12 1 16 -5 3 -5 15 -10 26 -10 10 0 19 -4 19 -10 0
-5 6 -10 14 -10 8 0 16 -5 18 -12 2 -6 12 -12 21 -14 11 -1 15 2 10 9 -3 7 2
4 13 -5 10 -9 32 -20 47 -23 16 -4 38 -20 49 -36 12 -16 27 -29 32 -29 6 0 4
5 -4 10 -13 8 -13 11 -1 22 11 11 13 11 6 -1 -6 -11 -4 -13 9 -8 10 4 15 3 11
-3 -3 -6 -1 -11 4 -11 16 -2 23 -4 56 -19 17 -7 32 -14 35 -15 37 -12 88 -44
82 -50 -4 -5 -2 -5 4 -2 6 4 34 -5 63 -18 28 -14 55 -25 61 -25 5 0 10 -4 10
-10 0 -5 8 -10 18 -10 10 0 23 -5 30 -12 7 -7 12 -9 12 -5 0 4 10 2 23 -5 12
-7 24 -13 27 -13 21 -4 78 -40 74 -46 -2 -4 1 -11 7 -15 8 -4 9 -3 5 4 -10 16
-3 15 39 -5 19 -9 35 -21 35 -26 0 -5 7 -7 15 -3 8 3 15 1 15 -4 0 -6 -5 -10
-11 -10 -8 0 -9 -4 0 -13 6 -8 9 -16 6 -18 -2 -3 5 -5 16 -5 19 0 19 1 3 13
-12 9 -15 16 -8 23 12 12 44 3 44 -12 0 -6 -8 -4 -17 3 -16 13 -17 12 -4 -3
10 -14 18 -15 32 -7 17 9 23 6 21 -12 -1 -3 10 -5 23 -4 32 4 55 -22 29 -32
-11 -4 -28 -15 -38 -25 -12 -11 -28 -16 -40 -12 -16 4 -18 3 -6 -5 12 -8 11
-13 -7 -29 -21 -17 -21 -20 -5 -35 9 -9 12 -17 6 -17 -7 0 -9 -31 -6 -87 2
-49 2 -86 -1 -83 -3 3 -7 47 -9 98 -3 98 -12 119 -47 109 -12 -3 -18 0 -17 7
2 6 1 8 -1 4 -3 -5 -12 -8 -21 -8 -13 0 -14 -2 -3 -9 8 -5 9 -11 3 -15 -14 -8
-42 3 -42 18 0 6 -5 4 -10 -4 -13 -20 -12 -39 1 -20 7 10 9 11 7 2 -2 -8 -18
-20 -36 -28 -21 -8 -30 -9 -26 -2 9 14 -7 5 -55 -31 -19 -14 -31 -20 -26 -12
6 11 4 13 -8 8 -20 -8 -44 28 -24 37 6 2 1 3 -13 2 -21 -3 -90 28 -90 41 0 2
5 1 12 -3 7 -4 8 -3 4 4 -5 9 -13 9 -28 1 -15 -8 -19 -8 -14 0 6 10 -6 15 -26
12 -5 0 -8 4 -8 9 0 13 6 13 33 -1 18 -9 20 -9 10 1 -14 15 -66 23 -57 8 4 -6
-1 -6 -13 1 -11 6 -23 8 -26 5 -3 -3 -13 -1 -24 5 -29 15 -113 32 -125 25 -7
-4 -8 -3 -4 4 7 12 0 13 -76 13 -21 0 -38 4 -38 9 0 5 8 7 18 4 14 -5 14 -4 2
4 -9 7 -18 7 -26 1 -13 -10 -42 -8 -63 5 -8 5 -12 5 -9 0 7 -11 -78 -12 -88
-1 -11 11 -52 8 -59 -3 -4 -6 -23 -11 -43 -10 -66 0 -146 -7 -201 -19 -29 -6
-58 -8 -64 -4 -5 3 -7 1 -4 -4 6 -10 -35 -23 -76 -24 -10 0 -15 -5 -11 -11 5
-7 2 -8 -5 -3 -23 13 -78 13 -78 -1 0 -7 5 -10 11 -7 16 11 46 11 40 1 -4 -5
-11 -7 -18 -5 -6 3 -20 -1 -31 -9 -10 -8 -30 -14 -43 -14 -14 0 -40 -11 -58
-25 -18 -14 -36 -25 -39 -25 -4 0 -20 -9 -35 -20 -19 -14 -31 -17 -35 -9 -4 5
-13 8 -21 5 -10 -4 -14 0 -12 11 2 9 -5 17 -15 18 -9 2 -15 -1 -11 -6 3 -5 10
-6 16 -3 7 4 8 2 4 -4 -8 -13 -56 4 -56 20 0 4 -3 7 -7 7 -20 -3 -34 3 -53 24
-18 18 -20 19 -14 3 7 -18 6 -18 -19 -1 -31 20 -34 27 -9 19 13 -5 14 -4 3 4
-8 6 -21 8 -29 4 -12 -4 -14 -1 -9 14 6 17 6 17 -5 3 -14 -17 -42 -14 -32 3 4
7 2 8 -4 4 -6 -4 -20 2 -32 14 -11 11 -20 15 -20 10 0 -6 -12 -3 -26 7 -25 16
-25 17 -8 30 10 7 13 13 7 13 -7 0 -18 -7 -27 -15 -9 -9 -17 -11 -21 -5 -3 5
9 19 27 30 32 20 67 29 38 10 -8 -5 -10 -10 -5 -10 6 0 21 12 34 25 13 14 28
25 35 25 6 0 4 -5 -4 -10 -8 -5 -10 -10 -4 -10 6 0 18 7 25 17 8 9 40 28 72
43 31 15 65 34 74 41 13 10 15 11 9 1 -6 -10 -1 -11 21 -6 15 4 30 11 31 16 4
9 76 48 89 48 4 0 -1 -6 -11 -13 -16 -12 -16 -14 -2 -14 9 0 16 5 16 10 0 5 8
3 18 -4 9 -7 14 -9 10 -5 -10 12 12 37 25 29 6 -4 7 -1 3 6 -6 9 -13 8 -27 -5
-11 -10 -19 -12 -19 -6 0 18 96 59 123 54 4 -1 7 2 7 6 0 4 28 21 63 37 34 16
65 33 68 38 4 5 12 6 18 3 6 -4 11 -2 11 3 0 12 27 10 50 -3 12 -7 13 -6 3 5
-13 13 -19 38 -7 27 7 -8 74 19 98 40 15 13 18 14 11 2 -8 -13 -6 -13 8 -1 9
7 24 10 33 7 14 -6 15 -4 4 9 -7 9 -9 15 -4 14 5 -1 22 3 37 9 16 7 33 12 38
12 5 0 9 5 9 11 0 6 8 8 19 4 11 -3 21 0 24 7 2 7 20 13 40 13 19 0 33 -4 29
-9z m978 -828 c0 -16 -3 -19 -11 -11 -6 6 -8 16 -5 22 11 17 16 13 16 -11z
m-3 -58 c1 -11 -1 -22 -5 -24 -4 -2 -8 7 -8 20 -1 13 1 24 5 24 4 0 7 -9 8
-20z m-8 -114 c-9 -8 -10 -7 -5 7 3 10 7 24 7 30 1 7 3 4 6 -7 3 -10 -1 -23
-8 -30z m17 -73 c-3 -7 -1 -15 5 -18 5 -4 9 -3 8 2 -4 21 2 23 18 7 26 -25 24
-70 -3 -85 -13 -6 -32 -9 -43 -6 -12 3 -19 1 -15 -4 3 -5 0 -9 -5 -9 -6 0 -11
7 -11 16 0 8 -4 13 -9 9 -6 -3 -8 4 -6 16 3 16 0 19 -12 14 -14 -5 -13 -2 3
16 10 12 13 19 7 15 -18 -10 -16 -3 6 23 20 23 30 18 26 -10 -2 -9 3 -16 11
-16 10 0 11 4 3 14 -6 7 -8 13 -5 13 4 0 2 10 -5 21 -8 15 -8 19 0 15 6 -4 11
0 12 11 0 14 3 12 10 -6 5 -14 8 -30 5 -38z"/>
<path d="M2580 4086 c0 -2 7 -9 15 -16 13 -11 14 -10 9 4 -5 14 -24 23 -24 12z"/>
<path d="M2395 4071 c-6 -11 13 -26 22 -17 4 3 1 6 -6 6 -7 0 -9 5 -6 10 3 6
4 10 1 10 -3 0 -7 -4 -11 -9z"/>
<path d="M2566 4053 c-6 -14 -5 -15 5 -6 7 7 10 15 7 18 -3 3 -9 -2 -12 -12z"/>
<path d="M2750 4006 c0 -2 7 -7 16 -10 8 -3 12 -2 9 4 -6 10 -25 14 -25 6z"/>
<path d="M2224 3989 c-3 -6 -2 -15 3 -20 5 -5 9 -1 9 11 0 23 -2 24 -12 9z"/>
<path d="M2045 3910 c-13 -6 -15 -9 -5 -9 8 0 22 4 30 9 18 12 2 12 -25 0z"/>
<path d="M2970 3910 c11 -7 11 -10 2 -10 -7 0 -10 -5 -6 -11 5 -8 9 -8 14 1 6
9 13 9 29 1 11 -7 21 -9 21 -7 0 7 -56 36 -67 36 -4 0 -1 -5 7 -10z"/>
<path d="M3289 3768 c0 -2 -3 -14 -5 -28 -4 -23 -4 -23 9 -6 9 13 19 16 28 11
12 -8 12 -6 0 8 -11 15 -29 23 -32 15z"/>
<path d="M1696 3746 c4 -9 9 -14 12 -12 3 3 11 1 19 -6 11 -8 17 -8 26 2 9 10
9 11 0 6 -7 -4 -24 1 -38 10 -24 15 -25 15 -19 0z"/>
<path d="M1640 3730 c-8 -5 -10 -10 -5 -10 6 0 17 5 25 10 8 5 11 10 5 10 -5
0 -17 -5 -25 -10z"/>
<path d="M1510 3662 c0 -6 9 -12 20 -15 11 -3 20 -3 20 -1 0 2 -9 8 -20 14
-11 6 -20 7 -20 2z"/>
<path d="M2794 3626 c1 -8 5 -18 8 -22 4 -3 5 1 4 10 -1 8 -5 18 -8 22 -4 3
-5 -1 -4 -10z"/>
<path d="M2848 3623 c7 -3 16 -2 19 1 4 3 -2 6 -13 5 -11 0 -14 -3 -6 -6z"/>
<path d="M1455 3610 c-16 -7 -17 -9 -3 -9 9 -1 20 4 23 9 7 11 7 11 -20 0z"/>
<path d="M2270 3610 c-8 -5 -10 -10 -5 -10 6 0 17 5 25 10 8 5 11 10 5 10 -5
0 -17 -5 -25 -10z"/>
<path d="M3528 3593 c6 -2 18 -2 25 0 6 3 1 5 -13 5 -14 0 -19 -2 -12 -5z"/>
<path d="M3370 3550 c-8 -5 -10 -10 -5 -10 6 0 17 5 25 10 8 5 11 10 5 10 -5
0 -17 -5 -25 -10z"/>
<path d="M1978 3543 c7 -3 16 -2 19 1 4 3 -2 6 -13 5 -11 0 -14 -3 -6 -6z"/>
<path d="M1820 3473 c8 -3 18 -11 22 -17 5 -7 8 -4 8 7 0 11 -7 17 -22 16 -16
0 -18 -2 -8 -6z"/>
<path d="M3256 3465 c-11 -8 -17 -17 -14 -20 2 -3 13 4 23 15 21 23 18 25 -9
5z"/>
<path d="M3210 3449 c0 -5 5 -7 10 -4 6 3 10 8 10 11 0 2 -4 4 -10 4 -5 0 -10
-5 -10 -11z"/>
<path d="M3517 2959 c7 -7 15 -10 18 -7 3 3 -2 9 -12 12 -14 6 -15 5 -6 -5z"/>
<path d="M2390 3493 c-459 -45 -805 -292 -875 -622 -56 -268 56 -494 302 -611
126 -61 143 -66 313 -103 109 -24 166 -35 298 -56 319 -53 393 -70 489 -116
86 -40 165 -114 195 -181 84 -191 0 -442 -196 -582 l-46 -33 0 324 c0 385 9
360 -125 365 -89 4 -135 -10 -155 -48 -7 -13 -10 -143 -8 -385 l3 -365 -30 -6
c-16 -3 -38 -8 -47 -10 -16 -5 -17 14 -16 273 1 153 -2 287 -6 299 -3 12 -18
26 -32 32 -33 15 -179 15 -207 0 -46 -24 -46 -29 -47 -317 l0 -273 -22 7 c-13
4 -39 8 -58 8 -19 0 -29 2 -22 4 9 4 12 46 12 167 0 157 -1 163 -23 184 -21
19 -34 22 -119 22 -128 0 -141 -10 -146 -109 -6 -99 3 -136 45 -182 46 -51
178 -139 277 -184 163 -76 383 -109 561 -86 369 50 638 223 785 509 89 172
104 411 38 582 -91 233 -294 377 -638 453 -109 24 -162 33 -310 56 -316 49
-354 56 -445 84 -126 39 -186 107 -187 210 -1 139 114 224 349 258 55 7 177
10 365 6 298 -5 407 -19 511 -65 23 -10 48 -17 55 -14 9 3 12 41 12 145 l0
140 -45 44 c-52 49 -150 101 -249 132 -129 40 -390 61 -556 44z m300 -24 c30
-1 62 -5 71 -9 8 -5 41 -11 73 -14 67 -5 74 -9 55 -33 -13 -17 -12 -17 6 -2
22 17 62 23 70 10 2 -5 -7 -7 -20 -5 -14 1 -27 -1 -30 -5 -2 -5 17 -7 43 -6
48 1 139 -34 124 -49 -4 -5 0 -7 8 -5 23 3 51 -12 43 -24 -3 -5 -1 -7 5 -3 6
3 24 -6 41 -21 26 -25 30 -35 32 -94 1 -36 -1 -71 -4 -76 -4 -6 -1 -14 5 -16
10 -4 9 -8 -2 -16 -12 -8 -12 -11 -1 -11 11 0 11 -3 1 -15 -9 -10 -9 -15 -1
-15 18 0 13 -14 -10 -29 -17 -10 -23 -10 -29 0 -5 6 -17 10 -28 7 -20 -6 -23
5 -8 32 4 8 -2 4 -13 -9 -12 -13 -21 -18 -21 -12 0 6 -3 10 -7 10 -21 -3 -44
2 -39 9 3 5 -1 9 -9 9 -8 0 -12 -5 -8 -10 3 -5 -4 -4 -16 3 -12 6 -32 10 -44
9 -12 -1 -31 2 -42 7 -25 11 -607 12 -655 1 -19 -5 -42 -9 -50 -9 -8 0 -20 -5
-27 -10 -7 -5 -14 -5 -18 1 -4 7 -15 5 -31 -5 -23 -16 -24 -16 -18 2 4 14 3
16 -4 5 -5 -7 -15 -10 -21 -7 -6 4 -11 2 -11 -3 0 -6 6 -11 13 -12 6 0 -1 -5
-18 -11 -34 -13 -117 -73 -109 -80 2 -3 -4 -11 -13 -19 -17 -13 -17 -13 -3 6
14 19 14 19 -2 6 -10 -7 -18 -20 -18 -27 0 -8 -4 -14 -9 -14 -5 0 -7 -9 -4
-20 3 -11 1 -20 -5 -20 -12 0 -10 -120 3 -140 5 -8 4 -11 -3 -6 -15 9 -8 -22
8 -37 12 -10 12 -9 1 6 -23 30 -6 19 26 -18 31 -35 29 -50 -2 -19 -9 9 -18 14
-20 12 -3 -3 8 -17 25 -31 16 -15 30 -23 30 -17 0 6 25 -4 55 -21 30 -17 60
-27 66 -23 9 5 10 2 5 -11 -6 -16 -4 -16 11 -4 12 10 15 10 9 1 -6 -9 -1 -11
18 -8 14 3 28 0 32 -5 3 -5 10 -6 16 -3 6 4 8 2 5 -3 -9 -14 26 -23 47 -11 9
5 21 6 28 2 12 -8 9 -7 158 -29 133 -20 132 -20 150 -28 8 -4 30 -6 47 -3 18
2 30 -1 27 -5 -3 -5 5 -8 18 -6 15 1 22 -3 20 -12 -2 -11 0 -12 11 -3 8 7 16
9 19 6 4 -3 31 -8 62 -10 31 -3 68 -9 82 -14 14 -6 36 -10 50 -10 13 0 24 -4
24 -9 0 -4 11 -7 25 -6 14 2 25 -1 25 -6 0 -5 -5 -9 -12 -9 -6 0 -9 -3 -6 -6
4 -3 15 -1 26 5 15 8 23 7 32 -3 6 -8 28 -17 48 -21 43 -7 124 -44 102 -45
-10 -1 -11 -3 -2 -7 6 -2 12 -10 12 -18 0 -7 8 -12 18 -12 42 0 54 -5 90 -38
22 -19 42 -31 46 -27 4 4 6 0 4 -8 -2 -8 3 -14 10 -13 6 2 12 -3 12 -11 0 -8
7 -17 16 -20 8 -3 13 -10 10 -14 -3 -5 8 -21 25 -36 16 -15 29 -34 29 -41 0
-7 3 -15 8 -18 4 -2 1 -2 -7 0 -7 2 -3 -7 9 -20 12 -13 28 -39 35 -58 7 -18
16 -43 20 -54 4 -13 4 -16 -2 -7 -7 9 -9 0 -9 -26 1 -22 5 -38 11 -36 6 3 11
-26 13 -71 2 -48 -1 -75 -7 -75 -6 0 -11 -5 -11 -11 0 -5 5 -7 11 -3 14 8 3
-64 -13 -83 -5 -7 -7 -16 -4 -22 7 -11 -24 -113 -39 -123 -5 -4 -7 -8 -2 -8 8
0 -20 -60 -29 -60 -3 0 -3 4 1 9 3 5 1 12 -4 16 -6 3 -8 -5 -6 -18 5 -25 -57
-122 -69 -110 -4 4 -4 -1 0 -11 6 -15 4 -17 -6 -11 -10 6 -12 4 -7 -7 5 -14
-29 -40 -55 -42 -3 -1 -10 -5 -15 -10 -5 -5 -3 -6 5 -2 23 13 12 -5 -20 -35
-20 -17 -39 -27 -49 -24 -20 7 -34 -10 -18 -21 8 -5 9 -3 4 7 -5 8 -6 12 -2 9
7 -6 9 -20 2 -20 -3 0 -15 -9 -27 -20 -12 -11 -28 -20 -35 -20 -7 0 -13 -5
-13 -11 0 -7 -9 -9 -21 -6 -15 4 -18 2 -10 -7 7 -8 5 -12 -9 -12 -10 0 -17 4
-14 7 2 4 -1 11 -7 15 -8 4 -9 3 -5 -4 4 -7 2 -12 -5 -12 -8 0 -7 -5 2 -17 10
-12 11 -15 1 -9 -7 4 -18 3 -25 -2 -17 -13 -109 -53 -103 -44 2 4 -7 7 -20 7
-22 0 -23 -1 -7 -13 15 -11 12 -12 -17 -7 -27 4 -30 3 -15 -4 27 -13 3 -14
-30 -1 -18 7 -24 7 -20 0 4 -7 -3 -9 -19 -6 -15 3 -25 0 -23 -6 4 -20 -66 -27
-233 -23 -169 4 -210 8 -231 21 -6 4 -25 8 -41 10 -37 5 -128 44 -128 55 0 5
-3 8 -7 8 -5 -1 -15 -1 -23 0 -13 1 -13 2 0 12 12 9 10 10 -8 6 -16 -4 -40 5
-72 24 -26 16 -52 29 -58 29 -16 0 -22 26 -9 41 10 10 9 11 -3 2 -11 -8 -22
-6 -42 7 -16 9 -25 20 -20 25 4 4 -1 5 -10 2 -13 -4 -15 -2 -11 10 4 10 2 14
-4 10 -23 -14 -40 38 -42 127 -1 77 0 88 14 82 9 -3 13 -2 10 4 -3 6 0 10 8
10 8 0 20 7 27 15 9 11 30 14 84 11 40 -1 78 -6 84 -10 13 -8 15 -333 1 -342
-14 -8 0 -24 16 -17 8 3 15 0 15 -6 0 -6 -5 -11 -12 -11 -6 0 -9 -2 -6 -5 3
-3 17 -1 32 5 15 5 25 6 21 1 -3 -5 -1 -12 5 -16 5 -3 10 -1 10 6 0 7 11 10
29 7 35 -5 54 18 38 47 -7 14 -7 20 1 23 7 2 12 11 12 20 0 11 -3 13 -8 5 -9
-14 -5 416 4 441 5 14 4 17 -4 12 -21 -13 -13 6 14 30 24 23 51 33 40 15 -4
-5 9 -5 30 -1 20 5 47 5 59 0 13 -5 26 -6 29 -2 16 15 45 7 55 -15 11 -25 17
-525 6 -543 -3 -4 1 -10 7 -13 25 -9 0 -17 -60 -19 -98 -5 -72 -13 36 -12 53
0 104 -4 112 -10 8 -6 12 -6 7 -1 -4 4 3 16 16 24 15 10 24 28 26 51 6 52 2
512 -5 610 -7 107 2 121 79 130 31 3 64 3 75 -1 10 -4 25 -4 32 1 7 4 23 2 36
-5 l25 -12 2 -302 c1 -231 -1 -300 -10 -297 -8 3 -6 -7 5 -30 15 -30 21 -34
45 -30 17 4 26 2 22 -4 -3 -6 1 -7 9 -4 9 3 14 10 11 14 -3 5 -2 10 2 13 5 2
2 2 -4 1 -21 -5 -15 14 6 21 10 3 34 21 52 40 18 18 37 31 42 28 5 -3 8 0 5 8
-3 8 6 22 19 33 13 10 22 20 19 23 -6 7 26 43 34 38 4 -2 7 2 7 10 0 8 -4 12
-8 9 -4 -2 6 20 22 48 17 31 26 61 23 72 -4 10 -2 16 2 13 5 -3 10 18 11 46 1
30 6 53 13 55 9 3 9 6 1 11 -6 4 -13 33 -15 65 -2 32 -8 61 -12 65 -5 3 -10
13 -12 21 -2 8 -10 23 -19 32 -8 9 -12 21 -8 27 4 7 0 8 -10 5 -17 -7 -17 15
0 29 6 4 -1 7 -14 5 -14 -2 -26 3 -29 11 -3 9 0 11 8 6 8 -5 11 -4 6 3 -4 6
-14 8 -23 5 -11 -4 -14 -3 -9 5 4 7 2 12 -4 12 -6 0 -8 5 -4 12 5 7 3 8 -5 3
-7 -4 -22 1 -34 12 -19 18 -44 31 -69 38 -5 2 -11 4 -15 5 -5 1 -12 2 -16 1
-5 -1 -6 3 -2 9 3 5 1 11 -4 11 -16 2 -23 4 -61 16 -19 6 -52 14 -73 18 -21 3
-35 10 -32 15 3 5 -10 7 -31 4 l-37 -4 19 22 c10 13 12 18 4 12 -8 -6 -22 -12
-30 -12 -8 0 -26 -4 -39 -8 -16 -5 -22 -4 -18 3 4 7 -11 11 -41 12 -57 3 -77
5 -122 16 -37 9 -48 11 -93 13 -17 1 -26 6 -22 13 5 7 -4 8 -27 4 -26 -5 -40
-1 -63 16 -17 12 -24 16 -17 9 15 -18 16 -38 1 -23 -6 6 -18 9 -25 6 -8 -3
-14 0 -14 7 0 6 6 8 13 4 6 -4 8 -3 4 1 -10 12 -38 15 -31 4 10 -16 -8 -10
-23 9 -8 9 -12 12 -9 6 3 -6 -7 -11 -25 -11 -21 0 -26 3 -17 10 9 6 6 7 -9 4
-13 -3 -25 -2 -28 3 -3 4 -25 11 -50 14 -36 6 -46 12 -51 31 -7 27 -30 40 -40
23 -4 -6 -3 -8 4 -4 6 3 13 2 16 -3 8 -12 -18 -21 -34 -11 -7 4 -9 13 -5 21 6
11 5 12 -6 2 -16 -16 -33 -17 -23 -1 4 6 3 8 -4 5 -14 -9 -93 34 -85 46 4 6 0
8 -10 4 -16 -6 -42 15 -31 26 4 4 -3 5 -14 2 -13 -2 -21 1 -19 8 1 7 -4 11
-11 9 -8 -1 -11 2 -8 7 3 5 -1 12 -10 15 -10 4 -14 14 -11 25 4 15 0 18 -19
16 -13 -1 -21 1 -19 5 3 4 -2 13 -9 19 -8 7 -13 23 -11 36 1 14 -2 22 -7 18
-6 -3 -7 4 -3 18 7 24 7 24 -10 4 -14 -17 -16 -17 -11 -2 3 9 2 17 -2 17 -15
0 -35 121 -33 205 1 89 16 171 34 182 5 3 8 2 5 -3 -3 -5 -2 -18 3 -29 6 -14
7 -8 4 19 -3 21 -8 42 -11 47 -3 5 -2 9 3 9 4 0 21 24 37 54 20 37 35 53 46
51 9 -2 17 3 17 10 0 8 -7 11 -16 7 -14 -5 -14 -3 -2 11 7 9 18 14 24 10 5 -3
8 -2 5 3 -9 13 48 77 61 69 6 -3 8 -11 5 -17 -4 -7 -2 -8 4 -4 9 5 9 13 2 27
-8 14 -7 19 2 19 8 0 20 9 28 20 10 13 17 16 26 9 8 -7 11 -5 10 7 0 9 5 19
13 22 9 3 11 0 6 -8 -5 -9 -4 -11 4 -6 6 4 9 11 7 15 -3 4 5 13 16 20 18 11
20 11 14 -4 -5 -15 -4 -16 9 -5 8 7 12 17 8 23 -4 6 0 8 10 4 16 -6 22 3 18
26 -1 5 4 5 10 1 7 -4 19 1 27 12 13 16 14 17 9 2 -4 -10 -2 -18 4 -18 6 0 7
-6 3 -12 -5 -9 -2 -8 9 1 12 9 14 17 8 25 -7 8 -4 12 11 13 11 1 28 9 37 17
10 9 25 16 35 16 9 0 15 4 12 8 -2 4 3 8 12 8 9 1 37 6 62 12 l45 11 -25 -20
-25 -20 28 12 c15 7 27 18 27 24 0 7 16 12 38 13 20 0 55 5 77 10 22 5 78 10
125 11 46 1 86 4 88 6 2 2 25 2 50 -1 26 -2 72 -4 102 -5z m550 -1169 c0 -5
-2 -10 -4 -10 -3 0 -8 5 -11 10 -3 6 -1 10 4 10 6 0 11 -4 11 -10z m-1335
-859 c-6 -5 -21 -12 -35 -15 l-25 -7 25 15 c28 17 50 21 35 7z"/>
<path d="M3085 3070 c-3 -6 1 -7 9 -4 18 7 21 14 7 14 -6 0 -13 -4 -16 -10z"/>
<path d="M1963 2983 c0 -8 6 -9 19 -2 10 5 18 11 18 12 0 2 -8 3 -18 3 -10 0
-19 -6 -19 -13z"/>
<path d="M1587 2983 c-10 -9 -9 -23 1 -23 5 0 9 7 9 15 0 17 -1 18 -10 8z"/>
<path d="M1946 2611 c-4 -5 3 -7 14 -4 23 6 26 13 6 13 -8 0 -17 -4 -20 -9z"/>
<path d="M2095 2550 c-3 -5 -1 -10 5 -10 6 0 8 -5 4 -12 -4 -7 -3 -8 4 -4 6 4
9 13 5 21 -6 18 -10 19 -18 5z"/>
<path d="M2170 2540 c-9 -6 -10 -10 -3 -10 6 0 15 5 18 10 8 12 4 12 -15 0z"/>
<path d="M2570 2469 c0 -5 5 -7 10 -4 6 3 10 8 10 11 0 2 -4 4 -10 4 -5 0 -10
-5 -10 -11z"/>
<path d="M1665 2419 c-4 -6 -5 -12 -2 -15 2 -3 7 2 10 11 7 17 1 20 -8 4z"/>
<path d="M3025 2379 c-4 -6 -5 -12 -2 -15 2 -3 7 2 10 11 7 17 1 20 -8 4z"/>
<path d="M1741 2344 c0 -11 3 -14 6 -6 3 7 2 16 -1 19 -3 4 -6 -2 -5 -13z"/>
<path d="M3141 2337 c2 -1 13 -9 24 -17 19 -14 19 -14 6 3 -7 9 -18 17 -24 17
-6 0 -8 -1 -6 -3z"/>
<path d="M1960 2251 c0 -6 4 -13 10 -16 6 -3 7 1 4 9 -7 18 -14 21 -14 7z"/>
<path d="M3291 2226 c-9 -11 -9 -16 1 -22 7 -4 10 -4 6 1 -4 4 -3 14 3 22 6 7
9 13 6 13 -2 0 -10 -6 -16 -14z"/>
<path d="M3316 2221 c-4 -5 -2 -12 3 -15 5 -4 12 -2 15 3 4 5 2 12 -3 15 -5 4
-12 2 -15 -3z"/>
<path d="M2246 2176 c5 -13 29 -16 36 -5 2 2 1 3 -1 2 -2 -1 -12 2 -22 8 -14
7 -17 6 -13 -5z"/>
<path d="M3366 2163 c-6 -14 -5 -15 5 -6 7 7 10 15 7 18 -3 3 -9 -2 -12 -12z"/>
<path d="M3380 2146 c0 -2 8 -10 18 -17 15 -13 16 -12 3 4 -13 16 -21 21 -21
13z"/>
<path d="M2695 2100 c-4 -7 3 -8 22 -4 38 9 42 14 10 14 -14 0 -29 -5 -32 -10z"/>
<path d="M3096 1948 c3 -5 10 -6 15 -3 13 9 11 12 -6 12 -8 0 -12 -4 -9 -9z"/>
<path d="M3061 1947 c2 -1 13 -9 24 -17 19 -14 19 -14 6 3 -7 9 -18 17 -24 17
-6 0 -8 -1 -6 -3z"/>
<path d="M2806 1813 c-6 -14 -5 -15 5 -6 7 7 10 15 7 18 -3 3 -9 -2 -12 -12z"/>
<path d="M2831 1624 c0 -11 3 -14 6 -6 3 7 2 16 -1 19 -3 4 -6 -2 -5 -13z"/>
<path d="M3180 1551 c0 -11 4 -22 9 -25 4 -3 6 6 3 19 -5 30 -12 33 -12 6z"/>
<path d="M1925 1415 c23 -8 83 -10 79 -3 -3 4 -24 8 -47 7 -23 0 -37 -2 -32
-4z"/>
<path d="M3099 1365 c-1 -3 -2 -8 -3 -12 -1 -5 -5 -15 -10 -23 -7 -12 -6 -13
4 -3 13 12 23 43 14 43 -2 0 -5 -2 -5 -5z"/>
<path d="M1883 1227 c-3 -6 -1 -7 5 -3 5 3 12 1 14 -6 3 -8 6 -7 10 3 7 17
-19 22 -29 6z"/>
<path d="M2785 1145 c-40 -25 -34 -31 15 -15 14 4 18 9 10 10 -8 1 -2 8 15 15
17 8 23 14 15 14 -8 0 -33 -11 -55 -24z"/>
<path d="M2710 1105 c-11 -13 -10 -14 4 -9 9 3 16 10 16 15 0 13 -6 11 -20 -6z"/>
<path d="M2635 1080 c-3 -6 1 -7 9 -4 18 7 21 14 7 14 -6 0 -13 -4 -16 -10z"/>
<path d="M2305 1051 c-3 -6 4 -9 15 -8 11 1 20 5 20 9 0 11 -28 10 -35 -1z"/>
<path d="M2314 978 c-4 -7 -3 -8 4 -4 7 4 12 3 12 -2 0 -6 7 -12 15 -16 22 -8
18 7 -5 21 -14 9 -21 10 -26 1z"/>
<path d="M2385 960 c-3 -5 -1 -10 4 -10 6 0 11 5 11 10 0 6 -2 10 -4 10 -3 0
-8 -4 -11 -10z"/>
<path d="M3266 2348 c3 -5 10 -6 15 -3 13 9 11 12 -6 12 -8 0 -12 -4 -9 -9z"/>
<path d="M3332 2306 c7 -8 15 -12 17 -11 5 6 -10 25 -20 25 -5 0 -4 -6 3 -14z"/>
<path d="M3486 2192 c-3 -5 1 -9 9 -9 8 0 12 4 9 9 -3 4 -7 8 -9 8 -2 0 -6 -4
-9 -8z"/>
</g>
</svg>
